<svg aria-hidden="true" style="width:0;height:0;position:absolute;overflow:hidden" xmlns="http://www.w3.org/2000/svg"><defs><symbol id="icon-align-left" viewBox="0 0 32 32"><path stroke-linejoin="round" stroke-linecap="round" stroke-width="2.286" d="M22.666 13.334H4M28 8H4m24 10.666H4M22.666 24H4"/></symbol><symbol id="icon-arrow-narrow-right" viewBox="0 0 32 32"><path fill="none" stroke="#eac645" style="stroke:var(--color1,#eac645)" stroke-linejoin="round" stroke-linecap="round" stroke-width="3.2" d="M5.333 16h21.334m0 0-8-8m8 8-8 8"/></symbol><symbol id="icon-dump" viewBox="0 0 32 32"><path fill="none" stroke="#fff" style="stroke:var(--color2,#fff)" stroke-linejoin="round" stroke-linecap="round" stroke-width="2.909" d="M12 4h8M4 8h24m-2.666 0-.935 14.026c-.141 2.103-.211 3.156-.665 3.953a4.031 4.031 0 0 1-1.707 1.61l-.023.01c-.828.4-1.881.4-3.99.4h-4.026c-2.109 0-3.162 0-3.99-.4a4.028 4.028 0 0 1-1.721-1.601l-.01-.019c-.454-.797-.524-1.85-.665-3.953L6.667 8m6.667 6v6.666M18.666 14v6.666"/></symbol><symbol id="icon-left-arrow" viewBox="0 0 32 32"><path fill="#b4afaf" style="fill:var(--color3,#b4afaf)" d="M14.133 16.947a1.333 1.333 0 0 1 0-1.894l6.12-6.107a1.335 1.335 0 1 0-1.879-1.894l-.001.001-6.12 6.12c-.723.724-1.17 1.723-1.17 2.827s.447 2.103 1.17 2.827l6.12 6.12a1.334 1.334 0 1 0 1.88-1.894l-6.12-6.107z"/></symbol><symbol id="icon-lock-02" viewBox="0 0 32 32"><path stroke-linejoin="round" stroke-linecap="round" stroke-width="2.286" d="M22.666 14.666v-4a6.666 6.666 0 0 0-13.332 0v4M10.4 28h11.2c2.24 0 3.36 0 4.216-.435a4.03 4.03 0 0 0 1.738-1.726l.011-.022c.435-.856.435-1.976.435-4.216v-.534c0-2.24 0-3.36-.435-4.216a4.03 4.03 0 0 0-1.726-1.738l-.022-.011c-.856-.434-1.976-.434-4.216-.434h-11.2c-2.24 0-3.36 0-4.216.434a4.03 4.03 0 0 0-1.738 1.726l-.011.022c-.435.857-.435 1.977-.435 4.217v.533c0 2.24 0 3.36.435 4.216a4.03 4.03 0 0 0 1.726 1.738l.022.011C7.04 28 8.16 28 10.4 28z"/></symbol><symbol id="icon-logo" viewBox="0 0 32 32"><path fill="#f6f6f6" style="fill:var(--color4,#f6f6f6)" d="m0 0 16.343 16.172L32 32V0H0z"/><path fill="#f6f6f6" style="fill:var(--color4,#f6f6f6)" d="M4.457 4.228 16.4 16.057l11.257 11.485h-23.2V4.227z"/><path fill="#4f2ee8" style="fill:var(--color5,#4f2ee8)" d="M27.733 27.619 15.789 15.79 4.533 4.305h23.2V27.62z"/><path fill="#4f2ee8" style="fill:var(--color5,#4f2ee8)" d="m9.257 9.028 13.6 13.601h-13.6v-13.6z"/><path fill="#f6f6f6" style="fill:var(--color4,#f6f6f6)" d="m9.257 9.028 13.6 13.601v-13.6h-13.6z"/></symbol><symbol id="icon-mail-02" viewBox="0 0 32 32"><path stroke-linejoin="round" stroke-linecap="round" stroke-width="2.286" d="m28.666 24-8.857-8m-7.618 0-8.857 8M2.666 9.334l10.887 7.621c.881.617 1.322.926 1.802 1.045.423.106.866.106 1.289 0 .48-.119.921-.427 1.802-1.045l10.887-7.621M9.066 26.666h13.867c2.24 0 3.36 0 4.216-.435a4.03 4.03 0 0 0 1.738-1.726l.011-.022c.434-.855.434-1.976.434-4.216v-8.533c0-2.24 0-3.36-.434-4.217a4.027 4.027 0 0 0-1.726-1.737l-.022-.011c-.857-.435-1.977-.435-4.217-.435H9.068c-2.24 0-3.36 0-4.216.435a4.03 4.03 0 0 0-1.738 1.726l-.01.022c-.434.855-.434 1.975-.434 4.216v8.533c0 2.24 0 3.36.434 4.217A4.027 4.027 0 0 0 4.83 26.22l.022.011c.856.435 1.977.435 4.217.435z"/></symbol><symbol id="icon-number-one" viewBox="0 0 32 32"><path fill="#fff" style="fill:var(--color2,#fff)" d="M16.226 32V7.454L11.131 8.65V4.308L18.619.985h3.5V32h-5.893z"/></symbol><symbol id="icon-number-three" viewBox="0 0 32 32"><path d="M16.791 30.208c-1.893 0-3.607-.329-5.143-.987a8.618 8.618 0 0 1-3.683-3.096l-.02-.031c-.933-1.399-1.426-3.154-1.481-5.266h5.184c.027 1.399.48 2.578 1.358 3.538.905.933 2.167 1.399 3.785 1.399 1.536 0 2.715-.425 3.538-1.275s1.234-1.92 1.234-3.209c0-1.509-.549-2.647-1.646-3.415-1.07-.795-2.455-1.193-4.155-1.193h-2.139v-4.32h2.181c1.399 0 2.565-.329 3.497-.987S20.7 9.734 20.7 8.445c0-1.07-.357-1.92-1.07-2.551-.686-.658-1.646-.987-2.88-.987-1.344 0-2.4.398-3.168 1.193a4.618 4.618 0 0 0-1.234 2.91v.011H7.205c.11-2.661 1.029-4.759 2.757-6.295C11.717 1.19 13.98.422 16.751.422c1.975 0 3.634.357 4.978 1.07 1.371.686 2.4 1.605 3.086 2.757.713 1.152 1.07 2.427 1.07 3.826 0 1.618-.453 2.99-1.358 4.114-.878 1.097-1.975 1.838-3.291 2.222a6.618 6.618 0 0 1 3.939 2.373l.01.013c1.015 1.234 1.522 2.798 1.522 4.69 0 1.591-.384 3.045-1.152 4.361s-1.893 2.373-3.374 3.168c-1.454.795-3.25 1.193-5.39 1.193z"/></symbol><symbol id="icon-number-two" viewBox="0 0 32 32"><path d="M5.952 32v-4.121a323.73 323.73 0 0 0 5.494-4.652 55.667 55.667 0 0 0 4.755-4.531l.03-.033c1.418-1.506 2.54-2.969 3.367-4.386.857-1.447 1.285-2.85 1.285-4.209 0-1.27-.354-2.393-1.063-3.367-.679-.975-1.817-1.462-3.412-1.462-1.625 0-2.85.532-3.678 1.595s-1.241 2.348-1.241 3.855H5.995c.059-2.274.561-4.165 1.506-5.671a8.79 8.79 0 0 1 3.714-3.389l.052-.023C12.833.838 14.59.454 16.54.454c3.161 0 5.612.871 7.355 2.614 1.772 1.713 2.658 3.943 2.658 6.69 0 1.713-.399 3.382-1.196 5.007a21.743 21.743 0 0 1-3.082 4.726l.024-.029a43.48 43.48 0 0 1-4.082 4.22l-.038.034c-1.477 1.3-2.91 2.511-4.298 3.633h13.425v4.652H5.95z"/></symbol><symbol id="icon-right-arrow" viewBox="0 0 32 32"><path d="M17.867 16.947a1.333 1.333 0 0 0 0-1.894l-6.12-6.107a1.333 1.333 0 0 1 .94-2.281c.367 0 .699.148.94.388l6.12 6.12c.723.724 1.17 1.723 1.17 2.827s-.447 2.103-1.17 2.827l-6.12 6.12a1.334 1.334 0 1 1-1.88-1.894l6.12-6.107z"/></symbol><symbol id="icon-three-dots" viewBox="0 0 32 32"><path d="M5.366 18.757c-.985 0-1.804-.313-2.462-.935a3.24 3.24 0 0 1-.936-2.281v-.034.002c0-.918.313-1.691.935-2.314.657-.657 1.477-.985 2.462-.985s1.79.327 2.412.985c.623.623.935 1.396.935 2.314 0 .886-.313 1.657-.935 2.314-.623.623-1.428.935-2.412.935zm10.673 0c-.985 0-1.804-.313-2.462-.935a3.24 3.24 0 0 1-.936-2.281v-.034.002c0-.918.313-1.691.935-2.314.657-.657 1.477-.985 2.462-.985s1.79.327 2.412.985c.623.623.935 1.396.935 2.314 0 .886-.313 1.657-.935 2.314-.623.623-1.428.935-2.412.935zm10.674 0c-.985 0-1.807-.313-2.462-.935a3.24 3.24 0 0 1-.936-2.281v-.034.002c0-.918.313-1.691.935-2.314.655-.657 1.477-.985 2.462-.985s1.787.327 2.412.985c.623.623.935 1.396.935 2.314 0 .886-.313 1.657-.935 2.314-.625.623-1.428.935-2.412.935z"/></symbol><symbol id="icon-user-fill" viewBox="0 0 32 32"><path fill="#4f2ee8" style="fill:var(--color5,#4f2ee8)" d="M5.334 29.334c.107-5.81 4.841-10.478 10.666-10.478s10.56 4.669 10.666 10.468v.01H5.334zm10.666-12h-.002A7.998 7.998 0 0 1 8 9.336v-.004a7.998 7.998 0 0 1 7.998-7.998h.004A7.998 7.998 0 0 1 24 9.332v.004a7.998 7.998 0 0 1-7.998 7.998H16z"/></symbol><symbol id="icon-Vector" viewBox="0 0 32 32"><path fill="#fff" style="fill:var(--color2,#fff)" d="M1.69 9.067h28.623L17.447 23.61a1.93 1.93 0 0 1-1.445.678h-.001a1.93 1.93 0 0 1-1.442-.676l-.002-.003L1.691 9.066z"/></symbol><symbol id="icon-Vector-2" viewBox="0 0 32 32"><path fill="#fff" style="fill:var(--color2,#fff)" d="M.632 21.389 14.779 7.2c.168-.168.35-.286.547-.357s.408-.106.632-.106.435.035.632.106c.215.081.398.202.547.357l14.189 14.189c.392.392.589.884.589 1.474s-.211 1.095-.632 1.516c-.369.389-.89.632-1.468.632h-.012a2.013 2.013 0 0 1-1.467-.631l-.001-.001L15.956 12 3.577 24.379c-.392.392-.876.589-1.452.589s-1.075-.211-1.496-.632a2.017 2.017 0 0 1-.632-1.468v-.012c0-.578.242-1.099.631-1.467l.001-.001z"/></symbol><symbol id="icon-Vector-3" viewBox="0 0 32 32"><path fill="#4f2ee8" style="fill:var(--color5,#4f2ee8)" d="M14.514 18.933c.38.381.905.618 1.486.618s1.106-.236 1.486-.617l9.6-9.616a2.095 2.095 0 0 1 2.972 2.954l-9.614 9.618c-1.137 1.135-2.707 1.838-4.441 1.838s-3.304-.702-4.441-1.838l-9.62-9.618a2.096 2.096 0 1 1 2.976-2.953l9.595 9.616z"/></symbol><symbol id="icon-x-close" viewBox="0 0 32 32"><path stroke-linejoin="round" stroke-linecap="round" stroke-width="3.429" d="M24 8 8 24M8 8l16 16"/></symbol></defs></svg>